<?xml version="1.0" encoding="utf-8"?>
<svg viewBox="268.977 0 483.549 469.4" width="483.549" height="469.4" xmlns="http://www.w3.org/2000/svg">
  <path d="M612.36555,682.31865a207.53414,207.53414,0,0,1-40.54,1.96c-32.66016-1.65-64.78027-11.15-92.23-29.01-12.17041-7.92-23.78027-17.65-30.08008-30.72-8.55029-17.75-5.56006-40.22,6.6499-55.68a56.01494,56.01494,0,0,1,16.14014-13.77c.91992-.52,1.85986-1.02,2.81006-1.5a60.55749,60.55749,0,0,1,33.48-6.13c19.57959,2.14,37.6499,14.1,48.08984,30.81,9.29981,14.9,12.54,32.48,14.4502,50.1.35986,3.32.66992,6.65.96973,9.96a146.37967,146.37967,0,0,1-7.81006,28.06,9.81128,9.81128,0,0,0-.43994,1.36q3,6.51,5.71,13.14a11.55657,11.55657,0,0,0,5.53027,1.4h37.18994Z" transform="matrix(1, 0, 0, 1, -175.662308, -215.278671)" fill="#f2f2f2"/>
  <path d="M568.79524,683.16869a2.03341,2.03341,0,0,1-2.69971-1.06c-.16016-.38-.31006-.76-.47021-1.14q-2.15992-5.25-4.52979-10.4a316.78429,316.78429,0,0,0-88.17041-114.1,1.47787,1.47787,0,0,1-.61963-1.37,2.03241,2.03241,0,0,1,2.81006-1.5,1.92729,1.92729,0,0,1,.41992.26,317.52029,317.52029,0,0,1,44.25977,43.95,322.504,322.504,0,0,1,34.91015,51.66q4.06494,7.5,7.71973,15.21c.48047,1.02.96045,2.05,1.43018,3.07995q3,6.51,5.71,13.14c.03027.07.06006.15.09033.22A1.47968,1.47968,0,0,1,568.79524,683.16869Z" fill="#fff" transform="matrix(1, 0, 0, 1, -175.662308, -215.278671)"/>
  <circle cx="339.459" cy="287.56" r="39" style="fill: rgb(255, 92, 108);"/>
  <circle cx="591.50305" cy="192" r="13" style="fill: rgb(255, 92, 108);"/>
  <circle cx="591.50305" cy="230" r="13" style="fill: rgb(255, 92, 108);"/>
  <circle cx="598.50305" cy="274" r="13" style="fill: rgb(255, 92, 108);"/>
  <path d="M899.5214,597.81813c-.13479,0-.21961-.00349-.24924-.00523l-16.13966.00174v-2.3797h16.198c.375.01336,8.02654.22949,15.07646-8.32488,10.50588-12.74905,19.13345-44.30968.57285-122.264-24.95721-104.82061-4.14182-197.42377,5.9658-232.37211a11.60395,11.60395,0,0,0-11.16442-14.8156H668.747a11.65594,11.65594,0,0,0-9.3994,4.78438c-4.28183,5.89-10.15787,17.20518-13.8349,37.665l-2.34194-.42063c3.75663-20.90428,9.82381-32.55237,14.25205-38.64338a14.04138,14.04138,0,0,1,11.32419-5.76508H909.78124a13.984,13.984,0,0,1,13.45058,17.85646c-10.05562,34.76707-30.76324,126.88976-5.93676,231.16018,18.82147,79.05061,9.77327,111.29506-1.13117,124.42465C908.97135,597.37949,901.04648,597.81813,899.5214,597.81813Z" fill="#e6e6e6" transform="matrix(1, 0, 0, 1, -175.662308, -215.278671)"/>
  <path d="M856.0919,641.24763c-.13479,0-.21961-.00349-.24924-.00523l-16.13965.00174v-2.3797h16.198c.37706.01162,8.02654.22949,15.07646-8.32488,10.50588-12.74905,19.13345-44.30968.57285-122.264-24.95721-104.82061-4.14182-197.42377,5.9658-232.37211a11.60395,11.60395,0,0,0-11.16442-14.8156H625.31749a11.65594,11.65594,0,0,0-9.3994,4.78438c-4.28183,5.89-10.15787,17.20518-13.83476,37.665l-2.34222-.42063c3.75677-20.90429,9.82395-32.55238,14.25219-38.64338a14.04138,14.04138,0,0,1,11.32419-5.76508H866.35174a13.984,13.984,0,0,1,13.45058,17.85646c-10.05562,34.76707-30.76324,126.88976-5.93675,231.16018,18.82146,79.05061,9.77326,111.29506-1.13117,124.42465C865.54185,640.809,857.617,641.24763,856.0919,641.24763Z" fill="#ccc" transform="matrix(1, 0, 0, 1, -175.662308, -215.278671)"/>
  <path d="M830.43537,551.15868c-24.83007-104.27-4.12011-196.4,5.93995-231.16a13.99387,13.99387,0,0,0-13.4502-17.86H581.88557a14.03109,14.03109,0,0,0-11.32031,5.76c-9.73,13.38-29.91993,57.75-7.36963,180.52,12.05957,65.68,11.87988,110.46,7.93994,139.96-2.21045,16.61005-5.62012,28.37-8.71045,36.30005l-.32959.84a13.63942,13.63942,0,0,0-1,5.05,13.83428,13.83428,0,0,0,4.52979,10.4,13.24271,13.24271,0,0,0,3.16992,2.2,13.41211,13.41211,0,0,0,3.03027,1.11,13.67578,13.67578,0,0,0,3.27.39H812.41535c.03028,0,.10987.01.25.01,1.52,0,9.4502-.44,16.64014-9.1C840.20539,662.44866,849.2552,630.20867,830.43537,551.15868Zm-2.89013,122.81c-7.04981,8.56-14.69971,8.34-15.06983,8.33H575.09553a11.63613,11.63613,0,0,1-9.63037-5.11,11.36694,11.36694,0,0,1-1.60986-9.43,9.81128,9.81128,0,0,1,.43994-1.36,146.37967,146.37967,0,0,0,7.81006-28.06c5.64013-30.75,6.68994-78.2-6.56983-150.35-22.37988-121.86-2.58984-165.56,6.94971-178.69a11.68138,11.68138,0,0,1,9.40039-4.78H822.92512a11.60377,11.60377,0,0,1,11.16016,14.81c-10.10987,34.95-30.91993,127.56-5.96,232.38C846.68537,629.65868,838.05549,661.21868,827.54524,673.96868Z" transform="matrix(1, 0, 0, 1, -175.662308, -215.278671)" style="fill: rgb(200, 209, 215);"/>
  <path d="M715.9248,415.679h-124.186a9.51879,9.51879,0,1,1,0-19.03758h124.186a9.51879,9.51879,0,1,1,0,19.03758Z" transform="matrix(1, 0, 0, 1, -175.662308, -215.278671)" style="fill: rgb(200, 209, 215);"/>
  <path d="M715.9248,456.679h-124.186a9.51879,9.51879,0,1,1,0-19.03758h124.186a9.51879,9.51879,0,1,1,0,19.03758Z" transform="matrix(1, 0, 0, 1, -175.662308, -215.278671)" style="fill: rgb(200, 209, 215);"/>
  <path d="M725.9248,498.679h-124.186a9.51879,9.51879,0,1,1,0-19.03758h124.186a9.51879,9.51879,0,1,1,0,19.03758Z" transform="matrix(1, 0, 0, 1, -175.662308, -215.278671)" style="fill: rgb(200, 209, 215);"/>
  <path d="M732.9248,542.679h-124.186a9.51879,9.51879,0,1,1,0-19.03758h124.186a9.51879,9.51879,0,1,1,0,19.03758Z" transform="matrix(1, 0, 0, 1, -175.662308, -215.278671)" style="fill: rgb(200, 209, 215);"/>
  <path d="M732.97746,341.76923h-89.2387a9.5188,9.5188,0,1,1,0-19.03759h89.2387a9.51879,9.51879,0,1,1,0,19.03759Z" transform="matrix(1, 0, 0, 1, -175.662308, -215.278671)" style="fill: rgb(255, 92, 108);"/>
  <circle cx="606.50305" cy="317.88152" r="13" style="fill: rgb(255, 92, 108);"/>
  <path d="M738.9248,585.679h-124.186a9.51879,9.51879,0,1,1,0-19.03758h124.186a9.51879,9.51879,0,1,1,0,19.03758Z" transform="matrix(1, 0, 0, 1, -175.662308, -215.278671)" style="fill: rgb(200, 209, 215);"/>
  <circle cx="612.50305" cy="360.88152" r="13" style="fill: rgb(255, 92, 108);"/>
  <path d="M 610.076 324.043 L 610.073 324.043 C 609.669 324.044 609.277 323.881 608.991 323.592 L 606.445 321.045 C 606.081 320.697 605.507 320.697 605.144 321.044 L 602.599 323.592 C 602.311 323.881 601.921 324.044 601.515 324.043 L 601.513 324.043 C 601.105 324.044 600.716 323.883 600.43 323.597 L 600.174 323.344 C 599.575 322.746 599.574 321.777 600.172 321.179 L 602.728 318.619 C 603.085 318.258 603.085 317.68 602.728 317.321 L 600.114 314.7 C 599.516 314.102 599.517 313.135 600.116 312.537 L 600.371 312.282 C 600.658 311.996 601.046 311.835 601.453 311.837 L 601.457 311.837 C 601.862 311.836 602.253 311.997 602.539 312.287 L 605.144 314.894 C 605.507 315.24 606.081 315.24 606.445 314.894 L 609.049 312.287 C 609.336 311.997 609.727 311.836 610.133 311.837 L 610.136 311.837 C 610.542 311.835 610.932 311.997 611.219 312.283 L 611.473 312.537 C 612.071 313.135 612.073 314.102 611.476 314.7 L 608.862 317.319 C 608.505 317.68 608.505 318.258 608.862 318.619 L 611.416 321.179 C 612.014 321.777 612.014 322.745 611.414 323.343 L 611.158 323.597 C 610.873 323.884 610.484 324.044 610.076 324.043 Z" style="fill: rgb(255, 255, 255);"/>
  <path d="M 617.084 366.52 L 617.082 366.52 C 616.676 366.521 616.285 366.358 615.999 366.069 L 613.454 363.522 C 613.089 363.174 612.515 363.174 612.152 363.521 L 609.606 366.069 C 609.319 366.358 608.929 366.521 608.522 366.52 L 608.52 366.52 C 608.113 366.521 607.724 366.36 607.438 366.074 L 607.182 365.821 C 606.583 365.223 606.582 364.254 607.179 363.656 L 609.735 361.096 C 610.092 360.735 610.092 360.157 609.735 359.798 L 607.121 357.177 C 606.524 356.579 606.525 355.612 607.124 355.014 L 607.378 354.759 C 607.665 354.473 608.055 354.312 608.461 354.314 L 608.464 354.314 C 608.87 354.313 609.261 354.474 609.547 354.764 L 612.152 357.371 C 612.515 357.717 613.089 357.717 613.454 357.371 L 616.057 354.764 C 616.344 354.474 616.734 354.313 617.141 354.314 L 617.144 354.314 C 617.549 354.312 617.94 354.474 618.227 354.76 L 618.481 355.014 C 619.079 355.612 619.081 356.579 618.484 357.177 L 615.87 359.796 C 615.513 360.157 615.513 360.735 615.87 361.096 L 618.425 363.656 C 619.022 364.254 619.022 365.222 618.422 365.82 L 618.167 366.074 C 617.881 366.361 617.491 366.521 617.084 366.52 Z" style="fill: rgb(255, 255, 255);"/>
  <path d="M 352.619 306.451 L 352.61 306.451 C 351.357 306.454 350.142 305.958 349.255 305.08 L 341.362 297.34 C 340.233 296.283 338.454 296.283 337.328 297.337 L 329.437 305.08 C 328.544 305.958 327.335 306.454 326.077 306.451 L 326.07 306.451 C 324.805 306.454 323.599 305.965 322.713 305.095 L 321.918 304.327 C 320.062 302.509 320.058 299.565 321.913 297.748 L 329.837 289.968 C 330.944 288.871 330.944 287.115 329.837 286.024 L 321.733 278.059 C 319.879 276.242 319.881 273.303 321.739 271.486 L 322.529 270.711 C 323.42 269.842 324.623 269.353 325.885 269.359 L 325.896 269.359 C 327.152 269.356 328.365 269.845 329.251 270.726 L 337.328 278.649 C 338.454 279.7 340.233 279.7 341.362 278.649 L 349.436 270.726 C 350.325 269.845 351.537 269.356 352.796 269.359 L 352.805 269.359 C 354.064 269.353 355.274 269.845 356.163 270.714 L 356.951 271.486 C 358.805 273.303 358.811 276.242 356.96 278.059 L 348.855 286.018 C 347.749 287.115 347.749 288.871 348.855 289.968 L 356.774 297.748 C 358.628 299.565 358.628 302.506 356.768 304.324 L 355.974 305.095 C 355.091 305.968 353.884 306.454 352.619 306.451 Z" style="fill: rgb(255, 255, 255);"/>
  <path d="M 610.076 324.043 L 610.073 324.043 C 609.669 324.044 609.277 323.881 608.991 323.592 L 606.445 321.045 C 606.081 320.697 605.507 320.697 605.144 321.044 L 602.599 323.592 C 602.311 323.881 601.921 324.044 601.515 324.043 L 601.513 324.043 C 601.105 324.044 600.716 323.883 600.43 323.597 L 600.174 323.344 C 599.575 322.746 599.574 321.777 600.172 321.179 L 602.728 318.619 C 603.085 318.258 603.085 317.68 602.728 317.321 L 600.114 314.7 C 599.516 314.102 599.517 313.135 600.116 312.537 L 600.371 312.282 C 600.658 311.996 601.046 311.835 601.453 311.837 L 601.457 311.837 C 601.862 311.836 602.253 311.997 602.539 312.287 L 605.144 314.894 C 605.507 315.24 606.081 315.24 606.445 314.894 L 609.049 312.287 C 609.336 311.997 609.727 311.836 610.133 311.837 L 610.136 311.837 C 610.542 311.835 610.932 311.997 611.219 312.283 L 611.473 312.537 C 612.071 313.135 612.073 314.102 611.476 314.7 L 608.862 317.319 C 608.505 317.68 608.505 318.258 608.862 318.619 L 611.416 321.179 C 612.014 321.777 612.014 322.745 611.414 323.343 L 611.158 323.597 C 610.873 323.884 610.484 324.044 610.076 324.043 Z" style="fill: rgb(255, 255, 255);" transform="matrix(1, 0, 0, 1, -8.151564, -44.194829)"/>
  <path d="M 594.917 236.225 L 594.914 236.225 C 594.51 236.226 594.118 236.063 593.832 235.774 L 591.286 233.227 C 590.922 232.879 590.348 232.879 589.985 233.226 L 587.44 235.774 C 587.152 236.063 586.762 236.226 586.356 236.225 L 586.354 236.225 C 585.946 236.226 585.557 236.065 585.271 235.779 L 585.015 235.526 C 584.416 234.928 584.415 233.959 585.013 233.361 L 587.569 230.801 C 587.926 230.44 587.926 229.862 587.569 229.503 L 584.955 226.882 C 584.357 226.284 584.358 225.317 584.957 224.719 L 585.212 224.464 C 585.499 224.178 585.887 224.017 586.294 224.019 L 586.298 224.019 C 586.703 224.018 587.094 224.179 587.38 224.469 L 589.985 227.076 C 590.348 227.422 590.922 227.422 591.286 227.076 L 593.89 224.469 C 594.177 224.179 594.568 224.018 594.974 224.019 L 594.977 224.019 C 595.383 224.017 595.773 224.179 596.06 224.465 L 596.314 224.719 C 596.912 225.317 596.914 226.284 596.317 226.882 L 593.703 229.501 C 593.346 229.862 593.346 230.44 593.703 230.801 L 596.257 233.361 C 596.855 233.959 596.855 234.927 596.255 235.525 L 595.999 235.779 C 595.714 236.066 595.325 236.226 594.917 236.225 Z" style="fill: rgb(255, 255, 255);"/>
  <path d="M 595.201 197.751 L 595.198 197.751 C 594.794 197.752 594.402 197.589 594.116 197.3 L 591.57 194.753 C 591.206 194.405 590.632 194.405 590.269 194.752 L 587.724 197.3 C 587.436 197.589 587.046 197.752 586.64 197.751 L 586.638 197.751 C 586.23 197.752 585.841 197.591 585.555 197.305 L 585.299 197.052 C 584.7 196.454 584.699 195.485 585.297 194.887 L 587.853 192.327 C 588.21 191.966 588.21 191.388 587.853 191.029 L 585.239 188.408 C 584.641 187.81 584.642 186.843 585.241 186.245 L 585.496 185.99 C 585.783 185.704 586.171 185.543 586.578 185.545 L 586.582 185.545 C 586.987 185.544 587.378 185.705 587.664 185.995 L 590.269 188.602 C 590.632 188.948 591.206 188.948 591.57 188.602 L 594.174 185.995 C 594.461 185.705 594.852 185.544 595.258 185.545 L 595.261 185.545 C 595.667 185.543 596.057 185.705 596.344 185.991 L 596.598 186.245 C 597.196 186.843 597.198 187.81 596.601 188.408 L 593.987 191.027 C 593.63 191.388 593.63 191.966 593.987 192.327 L 596.541 194.887 C 597.139 195.485 597.139 196.453 596.539 197.051 L 596.283 197.305 C 595.998 197.592 595.609 197.752 595.201 197.751 Z" style="fill: rgb(255, 255, 255);"/>
</svg>