<svg xmlns="http://www.w3.org/2000/svg" width="48" height="48" viewBox="0 0 48 48"><g display="none"><rect width="48" height="48" fill="#fff" color="#000" overflow="visible" style="isolation:auto;mix-blend-mode:normal"/><rect style="isolation:auto;mix-blend-mode:normal" width="48" height="48" x="-46.987" fill="#fff" color="#000" overflow="visible"/><rect width="48" height="48" x="-102.987" fill="#fff" color="#000" overflow="visible" style="isolation:auto;mix-blend-mode:normal"/><rect style="isolation:auto;mix-blend-mode:normal" width="48" height="48" y="57.592" fill="#fff" color="#000" overflow="visible"/><rect width="48" height="48" x="-46.987" y="57.592" fill="#fff" color="#000" overflow="visible" style="isolation:auto;mix-blend-mode:normal"/><rect style="isolation:auto;mix-blend-mode:normal" width="48" height="48" x="-102.987" y="57.592" fill="#fff" color="#000" overflow="visible"/><rect width="48" height="48" y="117.592" fill="#fff" color="#000" overflow="visible" style="isolation:auto;mix-blend-mode:normal"/><rect style="isolation:auto;mix-blend-mode:normal" width="48" height="48" x="-46.987" y="117.592" fill="#fff" color="#000" overflow="visible"/><rect width="48" height="48" x="-102.987" y="117.592" fill="#fff" color="#000" overflow="visible" style="isolation:auto;mix-blend-mode:normal"/><rect style="isolation:auto;mix-blend-mode:normal" width="48" height="48" y="173.592" fill="#fff" color="#000" overflow="visible"/><rect width="48" height="48" x="-46.987" y="173.592" fill="#fff" color="#000" overflow="visible" style="isolation:auto;mix-blend-mode:normal"/><rect style="isolation:auto;mix-blend-mode:normal" width="48" height="48" x="-102.987" y="173.592" fill="#fff" color="#000" overflow="visible"/><rect width="48" height="48" y="231.592" fill="#fff" color="#000" overflow="visible" style="isolation:auto;mix-blend-mode:normal"/><rect style="isolation:auto;mix-blend-mode:normal" width="48" height="48" x="-46.987" y="231.592" fill="#fff" color="#000" overflow="visible"/><rect width="48" height="48" x="-102.987" y="231.592" fill="#fff" color="#000" overflow="visible" style="isolation:auto;mix-blend-mode:normal"/></g><g transform="translate(-123 -1260.362)"><path fill="#242730" style="line-height:normal;text-indent:0;text-align:start;text-decoration-line:none;text-decoration-style:solid;text-decoration-color:#000;text-transform:none;block-progression:tb;isolation:auto;mix-blend-mode:normal" d="m 149,1262.3622 c -0.554,0 -1,0.446 -1,1 l 0,1 c 0,0.554 0.446,1 1,1 l 10.0039,0 0.016,6.4844 c 0,0.8253 0.6708,1.4938 1.4961,1.4961 l 6.4844,0.017 0,28.502 c 0,0.8569 -0.6431,1.5 -1.5,1.5 l -23,0 c -0.857,0 -1.5,-0.6431 -1.5,-1.5 l 0,-1.5 c 0,-0.554 -0.446,-1 -1,-1 l -1,0 c -0.554,0 -1,0.446 -1,1 l 0,1.5 c 0,2.4671 2.0329,4.5 4.5,4.5 l 23,0 c 2.467,0 4.5,-2.0329 4.5,-4.5 l 0,-30.4863 c -1e-4,-0.3978 -0.1582,-0.7793 -0.4395,-1.0606 l -7.5137,-7.5136 c -0.2812,-0.2814 -0.6627,-0.4394 -1.0605,-0.4395 z m -11,21 c 0,0.554 0.446,1 1,1 l 1,0 c 0.554,0 1,-0.446 1,-1 l 0,-10 c 0,-0.554 -0.446,-1 -1,-1 l -1,0 c -0.554,0 -1,0.446 -1,1 z" color="#000" font-family="sans-serif" font-weight="400" overflow="visible" white-space="normal"/><path fill="#11c111" style="line-height:normal;text-indent:0;text-align:start;text-decoration-line:none;text-decoration-style:solid;text-decoration-color:#000;text-transform:none;block-progression:tb;isolation:auto;mix-blend-mode:normal" d="m 142.5,258 c -2.467,0 -4.5,2.0329 -4.5,4.5 l 0,2.5 c 0,0.554 0.446,1 1,1 l 1,0 c 0.554,0 1,-0.446 1,-1 l 0,-2.5 c 0,-0.8569 0.6431,-1.5 1.5,-1.5 l 2.5,0 c 0.554,0 1,-0.446 1,-1 l 0,-1 c 0,-0.554 -0.446,-1 -1,-1 l -2.5,0 z M 127,282 c -1.10801,0 -2,0.892 -2,2 l 0,7 c 0,1.108 0.89199,2 2,2 l 25,0 c 1.10801,0 2,-0.892 2,-2 l 0,-7 c 0,-1.108 -0.89199,-2 -2,-2 l -25,0 z m 4.96484,2.74023 1.92969,0 c 1.53734,0 2.31055,0.60182 2.31055,1.72852 0,1.1936 -0.77321,1.82422 -2.31055,1.82422 l -0.79297,0 0,0.95312 0.46875,0 c 0.38195,0 0.57227,0.12396 0.57227,0.50586 0,0.382 -0.19032,0.51563 -0.57227,0.51563 l -1.60547,0 c -0.38195,0 -0.57226,-0.13363 -0.57226,-0.51563 0,-0.3246 0.18098,-0.50586 0.49609,-0.50586 l 0.0762,0 0,-3.47461 -0.0664,0 c -0.32466,0 -0.50586,-0.18142 -0.50586,-0.51562 0,-0.3724 0.19031,-0.51563 0.57226,-0.51563 z m 5.54493,0 0.87695,0 0.27734,0 c 0.88803,0 1.62435,0.02 2.19727,0.36329 0.73525,0.4488 1.16406,1.28888 1.16406,2.39648 0,1.1554 -0.48762,2.04312 -1.31836,2.48242 -0.48699,0.2674 -1.08832,0.28516 -1.79492,0.28516 l -0.52539,0 -0.87695,0 c -0.3915,0 -0.5918,-0.12413 -0.5918,-0.51563 0,-0.3342 0.18141,-0.50586 0.51562,-0.50586 l 0.0762,0 0,-3.47461 -0.0762,0 c -0.33421,0 -0.51562,-0.18142 -0.51562,-0.51562 0,-0.382 0.19075,-0.51563 0.5918,-0.51563 z m 5.79101,0 3.82031,0 c 0.39148,0 0.48633,0.095 0.48633,0.42969 l 0,1.04102 c 0,0.4011 -0.13346,0.59179 -0.50586,0.59179 -0.38195,0 -0.49609,-0.20029 -0.49609,-0.59179 l 0,-0.48828 -2.16797,0 0,1.19336 0.81055,0 0,-0.0566 c 0,-0.3533 0.1634,-0.5254 0.47851,-0.5254 0.3533,0 0.47656,0.19249 0.47656,0.58399 l 0,0.96289 c 0,0.3915 -0.12326,0.58398 -0.47656,0.58398 -0.31511,0 -0.47851,-0.16384 -0.47851,-0.49804 l 0,-0.0859 -0.81055,0 0,1.36523 0.25781,0 c 0.38194,0 0.57227,0.12396 0.57227,0.50586 0,0.382 -0.19033,0.51563 -0.57227,0.51563 l -1.39453,0 c -0.38195,0 -0.57226,-0.13363 -0.57226,-0.51563 0,-0.3246 0.18099,-0.50586 0.49609,-0.50586 l 0.0762,0 0,-3.47461 -0.0664,0 c -0.32466,0 -0.50586,-0.18142 -0.50586,-0.51562 0,-0.3724 0.19031,-0.51563 0.57226,-0.51563 z m -4.3125,1.00196 c -0.0859,0 -0.17989,-4.4e-4 -0.27539,0.01 l 0,3.48438 c 0.0955,0.01 0.18168,0.01 0.26758,0.01 1.16494,0 1.70898,-0.55276 1.70898,-1.75586 0,-1.1745 -0.55532,-1.74804 -1.70117,-1.74804 z m -5.88672,0.0664 0,1.4336 0.65821,0 c 0.73525,0 1.10937,-0.25867 1.10937,-0.72657 0,-0.4679 -0.37412,-0.70703 -1.10937,-0.70703 l -0.65821,0 z" color="#000" font-family="sans-serif" font-weight="400" overflow="visible" transform="translate(0 1004.362)" white-space="normal"/></g></svg>