<?xml version="1.0" encoding="utf-8"?>
<svg width="48" height="48" viewBox="0 0 48 48" xmlns="http://www.w3.org/2000/svg">
  <g stroke-linecap="round" stroke-linejoin="round" stroke-width="3" color="#000" font-family="sans-serif" transform="translate(-543 -1210.362)" white-space="normal">
    <path d="M569 1212.362c-.554 0-1 .446-1 1v1c0 .554.446 1 1 1h10.004l.016 6.485c0 .825.67 1.493 1.496 1.496l6.484.017v28.502c0 .857-.643 1.5-1.5 1.5h-23c-.857 0-1.5-.643-1.5-1.5v-1.5c0-.554-.446-1-1-1h-1c-.554 0-1 .446-1 1v1.5c0 2.467 2.033 4.5 4.5 4.5h23c2.467 0 4.5-2.033 4.5-4.5v-30.487a1.5 1.5 0 0 0-.44-1.06l-7.513-7.514a1.5 1.5 0 0 0-1.06-.44zm-11 21c0 .554.446 1 1 1h1c.554 0 1-.446 1-1v-10c0-.554-.446-1-1-1h-1c-.554 0-1 .446-1 1z" overflow="visible" solid-color="#000000" style="line-height: normal; text-indent: 0px; text-align: start; text-decoration-line: none; text-decoration-style: solid; text-decoration-color: rgb(0, 0, 0); text-transform: none; isolation: auto; mix-blend-mode: normal; fill: rgb(200, 209, 215);"/>
    <path style="line-height: normal; text-indent: 0px; text-align: start; text-decoration-line: none; text-decoration-style: solid; text-decoration-color: rgb(0, 0, 0); text-transform: none; isolation: auto; mix-blend-mode: normal; fill: rgb(32, 174, 227);" d="M562.5 208c-2.467 0-4.5 2.033-4.5 4.5v2.5c0 .554.446 1 1 1h1c.554 0 1-.446 1-1v-2.5c0-.857.643-1.5 1.5-1.5h2.5c.554 0 1-.446 1-1v-1c0-.554-.446-1-1-1h-2.5zM547 232c-1.108 0-2 .892-2 2v7c0 1.108.892 2 2 2h25c1.108 0 2-.892 2-2v-7c0-1.108-.892-2-2-2h-25zm18.283 2.586c.43 0 .82.086 1.22.258.106-.23.222-.258.48-.258.305 0 .38.097.39.498l.02.896v.05c0 .353-.114.495-.477.495-.382 0-.42-.21-.535-.44-.191-.371-.526-.581-.975-.581-.582 0-.935.305-.935.687 0 .487.535.534 1.5.735 1.155.238 1.699.756 1.699 1.7 0 1.147-.803 1.786-2.254 1.786-.477 0-.917-.049-1.404-.23-.105.18-.23.23-.44.23-.382 0-.523-.114-.533-.506l-.03-1.1v-.046c0-.401.135-.555.526-.555.363 0 .41.267.582.602.248.487.669.716 1.299.716.563 0 .906-.238.906-.677 0-.602-.533-.602-1.584-.88-1.05-.276-1.603-.63-1.603-1.575 0-1.06.878-1.805 2.148-1.805zm-13.322.154h1.193c.401 0 .592.134.592.516 0 .315-.161.496-.476.515l.628.89.612-.89c-.306-.029-.457-.21-.457-.515 0-.382.18-.516.582-.516h1.04c.402 0 .593.134.593.516 0 .344-.182.525-.536.525-.047 0-.085 0-.132-.01l-1.166 1.614 1.375 1.851c.038 0 .077-.01.115-.01.353 0 .535.182.535.525 0 .382-.193.516-.594.516h-1.25c-.4 0-.592-.134-.592-.516 0-.334.153-.496.497-.515l-.717-1.041-.735 1.04c.354.01.526.173.526.516 0 .382-.191.516-.592.516h-1.09c-.4 0-.582-.134-.582-.516 0-.343.172-.525.525-.525.039 0 .077.01.116.01l1.289-1.746-1.242-1.719c-.039 0-.076.01-.114.01-.353 0-.535-.181-.535-.525 0-.382.19-.516.592-.516zm5.543 0h1.996c.382 0 .572.143.572.516 0 .382-.19.515-.572.515h-.41v3.475h2.119v-.83c0-.401.133-.592.506-.592.382 0 .506.2.506.592v1.432c0 .334-.095.42-.487.42h-4.23c-.382 0-.563-.134-.563-.516s.181-.506.563-.506h.41v-3.475h-.41c-.382 0-.563-.133-.563-.515 0-.373.181-.516.563-.516z" overflow="visible" solid-color="#000000" transform="translate(0 1004.362)"/>
  </g>
</svg>