<?xml version="1.0" encoding="utf-8"?>
<svg width="48" height="48" viewBox="0 0 48 48" xmlns="http://www.w3.org/2000/svg">
  <g stroke-linecap="round" stroke-linejoin="round" stroke-width="3" color="#000" font-family="sans-serif" transform="translate(-543 -1260.362)" white-space="normal">
    <path style="line-height: normal; text-indent: 0px; text-align: start; text-decoration-line: none; text-decoration-style: solid; text-decoration-color: rgb(0, 0, 0); text-transform: none; isolation: auto; mix-blend-mode: normal; fill: rgb(200, 209, 215);" d="M569 1262.362c-.554 0-1 .446-1 1v1c0 .554.446 1 1 1h10.004l.016 6.485c0 .825.67 1.493 1.496 1.496l6.484.017v28.502c0 .857-.643 1.5-1.5 1.5h-23c-.857 0-1.5-.643-1.5-1.5v-1.5c0-.554-.446-1-1-1h-1c-.554 0-1 .446-1 1v1.5c0 2.467 2.033 4.5 4.5 4.5h23c2.467 0 4.5-2.033 4.5-4.5v-30.487a1.5 1.5 0 0 0-.44-1.06l-7.513-7.514a1.5 1.5 0 0 0-1.06-.44zm-11 21c0 .554.446 1 1 1h1c.554 0 1-.446 1-1v-10c0-.554-.446-1-1-1h-1c-.554 0-1 .446-1 1z" overflow="visible" solid-color="#000000"/>
    <path style="line-height: normal; text-indent: 0px; text-align: start; text-decoration-line: none; text-decoration-style: solid; text-decoration-color: rgb(0, 0, 0); text-transform: none; isolation: auto; mix-blend-mode: normal; fill: rgb(36, 210, 181);" d="M562.5 258c-2.467 0-4.5 2.033-4.5 4.5v2.5c0 .554.446 1 1 1h1c.554 0 1-.446 1-1v-2.5c0-.857.643-1.5 1.5-1.5h2.5c.554 0 1-.446 1-1v-1c0-.554-.446-1-1-1h-2.5zM547 282c-1.108 0-2 .892-2 2v7c0 1.108.892 2 2 2h25c1.108 0 2-.892 2-2v-7c0-1.108-.892-2-2-2h-25zm15.271 2.586c.43 0 .822.086 1.223.258.105-.23.219-.258.477-.258.305 0 .382.097.392.498l.02.896v.05c0 .353-.116.495-.479.495-.382 0-.42-.21-.535-.44-.19-.371-.524-.581-.973-.581-.582 0-.935.305-.935.687 0 .487.534.534 1.498.735 1.155.238 1.7.756 1.7 1.7 0 1.147-.801 1.786-2.253 1.786-.477 0-.917-.049-1.404-.23-.105.18-.23.23-.44.23-.381 0-.525-.114-.535-.506l-.027-1.1v-.046c0-.401.132-.555.523-.555.363 0 .413.267.584.602.249.487.669.716 1.3.716.563 0 .905-.238.905-.677 0-.602-.533-.602-1.583-.88-1.05-.276-1.606-.63-1.606-1.575 0-1.06.878-1.805 2.148-1.805zm-13.322.154h1.196c.4 0 .591.134.591.516 0 .315-.163.496-.478.515l.63.89.612-.89c-.306-.029-.459-.21-.459-.515 0-.382.181-.516.582-.516h1.041c.401 0 .592.134.592.516 0 .344-.18.525-.533.525-.048 0-.087 0-.135-.01l-1.164 1.614 1.375 1.851c.038 0 .075-.01.113-.01.353 0 .535.182.535.525 0 .382-.19.516-.592.516h-1.25c-.4 0-.593-.134-.593-.516 0-.334.154-.496.498-.515l-.717-1.041-.734 1.04c.353.01.523.173.523.516 0 .382-.19.516-.592.516h-1.088c-.4 0-.582-.134-.582-.516 0-.343.172-.525.526-.525.038 0 .075.01.113.01l1.29-1.746-1.241-1.719c-.038 0-.077.01-.115.01-.354 0-.536-.181-.536-.525 0-.382.191-.516.592-.516zm5.545 0h1.996c.382 0 .572.143.572.516 0 .382-.19.515-.572.515h-.412v3.475h2.121v-.83c0-.401.134-.592.506-.592.382 0 .506.2.506.592v1.432c0 .334-.095.42-.486.42h-4.23c-.383 0-.565-.134-.565-.516s.182-.506.564-.506h.41v-3.475h-.41c-.382 0-.564-.133-.564-.515 0-.373.182-.516.564-.516zm11.69 0h1.193c.401 0 .592.134.592.516 0 .315-.164.496-.479.515l.631.89.611-.89c-.305-.029-.459-.21-.459-.515 0-.382.181-.516.582-.516h1.041c.402 0 .592.134.592.516 0 .344-.18.525-.533.525-.048 0-.087 0-.135-.01l-1.164 1.614 1.375 1.851c.038 0 .075-.01.114-.01.353 0 .535.182.535.525 0 .382-.191.516-.592.516h-1.25c-.401 0-.592-.134-.592-.516 0-.334.152-.496.496-.515l-.717-1.041-.734 1.04c.353.01.525.173.525.516 0 .382-.192.516-.593.516h-1.088c-.401 0-.582-.134-.582-.516 0-.343.172-.525.525-.525.038 0 .075.01.113.01l1.29-1.746-1.24-1.719c-.039 0-.078.01-.116.01-.353 0-.535-.181-.535-.525 0-.382.193-.516.594-.516z" overflow="visible" solid-color="#000000" transform="translate(0 1004.362)"/>
  </g>
</svg>