<svg xmlns="http://www.w3.org/2000/svg" width="48" height="48" viewBox="0 0 48 48"><g display="none"><rect width="48" height="48" fill="#fff" color="#000" overflow="visible" style="isolation:auto;mix-blend-mode:normal"/><rect style="isolation:auto;mix-blend-mode:normal" width="48" height="48" x="-46.987" fill="#fff" color="#000" overflow="visible"/><rect width="48" height="48" x="-102.987" fill="#fff" color="#000" overflow="visible" style="isolation:auto;mix-blend-mode:normal"/><rect style="isolation:auto;mix-blend-mode:normal" width="48" height="48" y="57.592" fill="#fff" color="#000" overflow="visible"/><rect width="48" height="48" x="-46.987" y="57.592" fill="#fff" color="#000" overflow="visible" style="isolation:auto;mix-blend-mode:normal"/><rect style="isolation:auto;mix-blend-mode:normal" width="48" height="48" x="-102.987" y="57.592" fill="#fff" color="#000" overflow="visible"/><rect width="48" height="48" y="117.592" fill="#fff" color="#000" overflow="visible" style="isolation:auto;mix-blend-mode:normal"/><rect style="isolation:auto;mix-blend-mode:normal" width="48" height="48" x="-46.987" y="117.592" fill="#fff" color="#000" overflow="visible"/><rect width="48" height="48" x="-102.987" y="117.592" fill="#fff" color="#000" overflow="visible" style="isolation:auto;mix-blend-mode:normal"/><rect style="isolation:auto;mix-blend-mode:normal" width="48" height="48" y="173.592" fill="#fff" color="#000" overflow="visible"/><rect width="48" height="48" x="-46.987" y="173.592" fill="#fff" color="#000" overflow="visible" style="isolation:auto;mix-blend-mode:normal"/><rect style="isolation:auto;mix-blend-mode:normal" width="48" height="48" x="-102.987" y="173.592" fill="#fff" color="#000" overflow="visible"/><rect width="48" height="48" y="231.592" fill="#fff" color="#000" overflow="visible" style="isolation:auto;mix-blend-mode:normal"/><rect style="isolation:auto;mix-blend-mode:normal" width="48" height="48" x="-46.987" y="231.592" fill="#fff" color="#000" overflow="visible"/><rect width="48" height="48" x="-102.987" y="231.592" fill="#fff" color="#000" overflow="visible" style="isolation:auto;mix-blend-mode:normal"/></g><g transform="translate(-285 -1460.362)"><path fill="#242730" style="line-height:normal;text-indent:0;text-align:start;text-decoration-line:none;text-decoration-style:solid;text-decoration-color:#000;text-transform:none;block-progression:tb;isolation:auto;mix-blend-mode:normal" d="m 311,1462.3622 c -0.55401,0 -1,0.446 -1,1 l 0,1 c 0,0.554 0.44599,1 1,1 l 10.00391,0 0.0156,6.4844 c 0.002,0.8253 0.67075,1.4938 1.49609,1.4961 l 6.48437,0.017 0,28.502 c 0,0.8569 -0.64305,1.5 -1.5,1.5 l -23,0 c -0.85695,0 -1.5,-0.6431 -1.5,-1.5 l 0,-1.5 c 0,-0.554 -0.44599,-1 -1,-1 l -1,0 c -0.55401,0 -1,0.446 -1,1 l 0,1.5 c 0,2.4671 2.03295,4.5 4.5,4.5 l 23,0 c 2.46705,0 4.5,-2.0329 4.5,-4.5 l 0,-30.4863 c -8e-5,-0.3978 -0.15815,-0.7793 -0.43945,-1.0606 l -7.51368,-7.5136 c -0.28126,-0.2814 -0.66274,-0.4394 -1.06054,-0.4395 z m -11,21 c 0,0.554 0.44599,1 1,1 l 1,0 c 0.55401,0 1,-0.446 1,-1 l 0,-10 c 0,-0.554 -0.44599,-1 -1,-1 l -1,0 c -0.55401,0 -1,0.446 -1,1 z" color="#000" font-family="sans-serif" font-weight="400" overflow="visible" white-space="normal"/><path fill="#11c111" style="line-height:normal;text-indent:0;text-align:start;text-decoration-line:none;text-decoration-style:solid;text-decoration-color:#000;text-transform:none;block-progression:tb;isolation:auto;mix-blend-mode:normal" d="m 304.5,458 c -2.46705,0 -4.5,2.0329 -4.5,4.5 l 0,2.5 c 0,0.554 0.44599,1 1,1 l 1,0 c 0.55401,0 1,-0.446 1,-1 l 0,-2.5 c 0,-0.8569 0.64305,-1.5 1.5,-1.5 l 2.5,0 c 0.55401,0 1,-0.446 1,-1 l 0,-1 c 0,-0.554 -0.44599,-1 -1,-1 l -2.5,0 z M 289,482 c -1.10801,0 -2,0.892 -2,2 l 0,7 c 0,1.108 0.89199,2 2,2 l 25,0 c 1.10801,0 2,-0.892 2,-2 l 0,-7 c 0,-1.108 -0.89199,-2 -2,-2 l -25,0 z m 5.14648,2.74023 2.97071,0 c 0.33421,0 0.51562,0.19142 0.51562,0.44922 0,0.1528 -0.0486,0.31483 -0.125,0.41993 l -2.49219,3.6289 1.56641,0 0,-0.75586 c 0,-0.4201 0.17231,-0.5918 0.53516,-0.5918 0.33421,0 0.49609,0.18186 0.49609,0.53516 l 0,0.0566 -0.0566,1.20313 c -0.0191,0.4583 -0.0197,0.58203 -0.54492,0.58203 l -3.08399,0 c -0.32466,0 -0.51562,-0.18937 -0.51562,-0.44727 0,-0.1623 0.0563,-0.30515 0.12305,-0.41015 l 2.51172,-3.64844 -1.44141,0 -0.0293,0.6582 c -0.0191,0.4201 -0.15126,0.5918 -0.5332,0.5918 -0.33421,0 -0.49805,-0.1799 -0.49805,-0.5332 l 0,-0.0586 0.0488,-1.10742 c 0.0191,-0.4973 0.0371,-0.57227 0.55273,-0.57227 z m 11.20313,0 1.92773,0 c 1.53735,0 2.31055,0.60182 2.31055,1.72852 0,1.1936 -0.7732,1.82422 -2.31055,1.82422 l -0.79296,0 0,0.95312 0.46874,0 c 0.38196,0 0.57227,0.12396 0.57227,0.50586 0,0.382 -0.1903,0.51563 -0.57227,0.51563 l -1.60351,0 c -0.38195,0 -0.57422,-0.13363 -0.57422,-0.51563 0,-0.3246 0.18294,-0.50586 0.49805,-0.50586 l 0.0762,0 0,-3.47461 -0.0684,0 c -0.32466,0 -0.50586,-0.18142 -0.50586,-0.51562 0,-0.3724 0.19227,-0.51563 0.57422,-0.51563 z m -5.36328,0.01 2.76953,0 c 0.3915,0 0.5918,0.10476 0.5918,0.50586 0,0.3915 -0.2003,0.51562 -0.5918,0.51562 l -0.7832,0 0,3.47461 0.7832,0 c 0.3915,0 0.58203,0.11436 0.58203,0.50586 0,0.3629 -0.18099,0.51563 -0.58203,0.51563 l -2.76953,0 c -0.3915,0 -0.5918,-0.12413 -0.5918,-0.51563 0,-0.3915 0.2003,-0.50586 0.5918,-0.50586 l 0.7832,0 0,-3.47461 -0.7832,0 c -0.3915,0 -0.5918,-0.12412 -0.5918,-0.51562 0,-0.3915 0.2003,-0.50586 0.5918,-0.50586 z m 6.49805,1.05859 0,1.4336 0.66015,0 c 0.73525,0 1.10742,-0.25867 1.10742,-0.72657 0,-0.4679 -0.37217,-0.70703 -1.10742,-0.70703 l -0.66015,0 z" color="#000" font-family="sans-serif" font-weight="400" overflow="visible" transform="translate(0 1004.362)" white-space="normal"/></g></svg>