<?xml version="1.0" encoding="utf-8"?>
<svg viewBox="268.977 0 483.549 469.4" width="483.549" height="469.4" xmlns="http://www.w3.org/2000/svg">
  <path d="M612.36555,682.31865a207.53414,207.53414,0,0,1-40.54,1.96c-32.66016-1.65-64.78027-11.15-92.23-29.01-12.17041-7.92-23.78027-17.65-30.08008-30.72-8.55029-17.75-5.56006-40.22,6.6499-55.68a56.01494,56.01494,0,0,1,16.14014-13.77c.91992-.52,1.85986-1.02,2.81006-1.5a60.55749,60.55749,0,0,1,33.48-6.13c19.57959,2.14,37.6499,14.1,48.08984,30.81,9.29981,14.9,12.54,32.48,14.4502,50.1.35986,3.32.66992,6.65.96973,9.96a146.37967,146.37967,0,0,1-7.81006,28.06,9.81128,9.81128,0,0,0-.43994,1.36q3,6.51,5.71,13.14a11.55657,11.55657,0,0,0,5.53027,1.4h37.18994Z" transform="matrix(1, 0, 0, 1, -175.662308, -215.278671)" fill="#f2f2f2"/>
  <path d="M568.79524,683.16869a2.03341,2.03341,0,0,1-2.69971-1.06c-.16016-.38-.31006-.76-.47021-1.14q-2.15992-5.25-4.52979-10.4a316.78429,316.78429,0,0,0-88.17041-114.1,1.47787,1.47787,0,0,1-.61963-1.37,2.03241,2.03241,0,0,1,2.81006-1.5,1.92729,1.92729,0,0,1,.41992.26,317.52029,317.52029,0,0,1,44.25977,43.95,322.504,322.504,0,0,1,34.91015,51.66q4.06494,7.5,7.71973,15.21c.48047,1.02.96045,2.05,1.43018,3.07995q3,6.51,5.71,13.14c.03027.07.06006.15.09033.22A1.47968,1.47968,0,0,1,568.79524,683.16869Z" fill="#fff" transform="matrix(1, 0, 0, 1, -175.662308, -215.278671)"/>
  <path d="M 334.735 301.579 C 333.857 301.581 333.003 301.297 332.301 300.771 L 332.257 300.738 L 323.092 293.721 C 320.603 291.815 321.11 287.93 324.004 286.727 C 325.349 286.168 326.89 286.37 328.045 287.256 L 333.982 291.808 L 348.011 273.512 C 349.379 271.728 351.935 271.39 353.72 272.759 L 353.633 272.877 L 353.722 272.761 C 355.504 274.13 355.841 276.684 354.476 278.47 L 337.974 299.99 C 337.201 300.995 336.003 301.583 334.735 301.579 Z" fill="#fff"/>
  <circle cx="591.50305" cy="192" r="13" style="fill: rgb(200, 209, 215);"/>
  <circle cx="591.50305" cy="230" r="13" style="fill: rgb(200, 209, 215);"/>
  <circle cx="598.50305" cy="274" r="13" style="fill: rgb(200, 209, 215);"/>
  <path d="M899.5214,597.81813c-.13479,0-.21961-.00349-.24924-.00523l-16.13966.00174v-2.3797h16.198c.375.01336,8.02654.22949,15.07646-8.32488,10.50588-12.74905,19.13345-44.30968.57285-122.264-24.95721-104.82061-4.14182-197.42377,5.9658-232.37211a11.60395,11.60395,0,0,0-11.16442-14.8156H668.747a11.65594,11.65594,0,0,0-9.3994,4.78438c-4.28183,5.89-10.15787,17.20518-13.8349,37.665l-2.34194-.42063c3.75663-20.90428,9.82381-32.55237,14.25205-38.64338a14.04138,14.04138,0,0,1,11.32419-5.76508H909.78124a13.984,13.984,0,0,1,13.45058,17.85646c-10.05562,34.76707-30.76324,126.88976-5.93676,231.16018,18.82147,79.05061,9.77327,111.29506-1.13117,124.42465C908.97135,597.37949,901.04648,597.81813,899.5214,597.81813Z" fill="#e6e6e6" transform="matrix(1, 0, 0, 1, -175.662308, -215.278671)"/>
  <path d="M856.0919,641.24763c-.13479,0-.21961-.00349-.24924-.00523l-16.13965.00174v-2.3797h16.198c.37706.01162,8.02654.22949,15.07646-8.32488,10.50588-12.74905,19.13345-44.30968.57285-122.264-24.95721-104.82061-4.14182-197.42377,5.9658-232.37211a11.60395,11.60395,0,0,0-11.16442-14.8156H625.31749a11.65594,11.65594,0,0,0-9.3994,4.78438c-4.28183,5.89-10.15787,17.20518-13.83476,37.665l-2.34222-.42063c3.75677-20.90429,9.82395-32.55238,14.25219-38.64338a14.04138,14.04138,0,0,1,11.32419-5.76508H866.35174a13.984,13.984,0,0,1,13.45058,17.85646c-10.05562,34.76707-30.76324,126.88976-5.93675,231.16018,18.82146,79.05061,9.77326,111.29506-1.13117,124.42465C865.54185,640.809,857.617,641.24763,856.0919,641.24763Z" fill="#ccc" transform="matrix(1, 0, 0, 1, -175.662308, -215.278671)"/>
  <path d="M830.43537,551.15868c-24.83007-104.27-4.12011-196.4,5.93995-231.16a13.99387,13.99387,0,0,0-13.4502-17.86H581.88557a14.03109,14.03109,0,0,0-11.32031,5.76c-9.73,13.38-29.91993,57.75-7.36963,180.52,12.05957,65.68,11.87988,110.46,7.93994,139.96-2.21045,16.61005-5.62012,28.37-8.71045,36.30005l-.32959.84a13.63942,13.63942,0,0,0-1,5.05,13.83428,13.83428,0,0,0,4.52979,10.4,13.24271,13.24271,0,0,0,3.16992,2.2,13.41211,13.41211,0,0,0,3.03027,1.11,13.67578,13.67578,0,0,0,3.27.39H812.41535c.03028,0,.10987.01.25.01,1.52,0,9.4502-.44,16.64014-9.1C840.20539,662.44866,849.2552,630.20867,830.43537,551.15868Zm-2.89013,122.81c-7.04981,8.56-14.69971,8.34-15.06983,8.33H575.09553a11.63613,11.63613,0,0,1-9.63037-5.11,11.36694,11.36694,0,0,1-1.60986-9.43,9.81128,9.81128,0,0,1,.43994-1.36,146.37967,146.37967,0,0,0,7.81006-28.06c5.64013-30.75,6.68994-78.2-6.56983-150.35-22.37988-121.86-2.58984-165.56,6.94971-178.69a11.68138,11.68138,0,0,1,9.40039-4.78H822.92512a11.60377,11.60377,0,0,1,11.16016,14.81c-10.10987,34.95-30.91993,127.56-5.96,232.38C846.68537,629.65868,838.05549,661.21868,827.54524,673.96868Z" transform="matrix(1, 0, 0, 1, -175.662308, -215.278671)" style="fill: rgb(200, 209, 215);"/>
  <path d="M715.9248,415.679h-124.186a9.51879,9.51879,0,1,1,0-19.03758h124.186a9.51879,9.51879,0,1,1,0,19.03758Z" transform="matrix(1, 0, 0, 1, -175.662308, -215.278671)" style="fill: rgb(200, 209, 215);"/>
  <path d="M715.9248,456.679h-124.186a9.51879,9.51879,0,1,1,0-19.03758h124.186a9.51879,9.51879,0,1,1,0,19.03758Z" transform="matrix(1, 0, 0, 1, -175.662308, -215.278671)" style="fill: rgb(200, 209, 215);"/>
  <path d="M725.9248,498.679h-124.186a9.51879,9.51879,0,1,1,0-19.03758h124.186a9.51879,9.51879,0,1,1,0,19.03758Z" transform="matrix(1, 0, 0, 1, -175.662308, -215.278671)" style="fill: rgb(200, 209, 215);"/>
  <path d="M732.9248,542.679h-124.186a9.51879,9.51879,0,1,1,0-19.03758h124.186a9.51879,9.51879,0,1,1,0,19.03758Z" transform="matrix(1, 0, 0, 1, -175.662308, -215.278671)" style="fill: rgb(200, 209, 215);"/>
  <path d="M732.97746,341.76923h-89.2387a9.5188,9.5188,0,1,1,0-19.03759h89.2387a9.51879,9.51879,0,1,1,0,19.03759Z" transform="matrix(1, 0, 0, 1, -175.662308, -215.278671)" style="fill: rgb(255, 144, 65);"/>
  <circle cx="606.50305" cy="317.88152" r="13" style="fill: rgb(200, 209, 215);"/>
  <path d="M738.9248,585.679h-124.186a9.51879,9.51879,0,1,1,0-19.03758h124.186a9.51879,9.51879,0,1,1,0,19.03758Z" transform="matrix(1, 0, 0, 1, -175.662308, -215.278671)" style="fill: rgb(200, 209, 215);"/>
  <circle cx="612.50305" cy="360.88152" r="13" style="fill: rgb(200, 209, 215);"/>
  <path d="M 291.823 320.864 L 357.703 320.864 C 360.488 320.848 362.253 317.617 360.934 314.952 L 328.01 248.472 C 326.665 245.755 323.119 245.64 321.627 248.264 C 321.589 248.332 321.551 248.401 321.517 248.472 L 288.576 314.952 C 287.254 317.624 289.032 320.861 291.823 320.864 Z M 328.955 308.716 L 320.572 308.716 L 320.572 299.609 L 328.955 299.609 Z M 328.955 293.536 L 320.572 293.536 L 320.572 275.317 L 328.955 275.317 Z" style="fill: rgb(255, 144, 65);"/>
</svg>